<mxfile host="drawio-plugin" modified="2024-08-15T03:52:19.392Z" agent="5.0 (Windows NT 10.0; Win64; x64) AppleWebKit/537.36 (KHTML, like Gecko) Chrome/111.0.0.0 Safari/537.36" etag="PYlksvJL9UNldDU5CM3-" version="20.5.3" type="embed"><diagram id="23iRSUPoRavnBvh4doch" name="Page-1"><mxGraphModel dx="4177" dy="3162" grid="1" gridSize="10" guides="1" tooltips="1" connect="1" arrows="1" fold="1" page="1" pageScale="1" pageWidth="827" pageHeight="1169" math="0" shadow="0"><root><mxCell id="0"/><mxCell id="1" parent="0"/><mxCell id="2" value="创建汽车类&lt;br&gt;实例化汽车类并应用" style="whiteSpace=wrap;html=1;aspect=fixed;" vertex="1" parent="1"><mxGeometry x="-590" y="-660" width="130" height="130" as="geometry"/></mxCell><mxCell id="3" value="创建汽车类&lt;br&gt;并管理底层类，比如轮子类，引擎类...在次实例化并管理" style="whiteSpace=wrap;html=1;aspect=fixed;" vertex="1" parent="1"><mxGeometry x="-230" y="-660" width="130" height="130" as="geometry"/></mxCell><mxCell id="5" value="轮子类" style="whiteSpace=wrap;html=1;aspect=fixed;" vertex="1" parent="1"><mxGeometry x="-360" y="-830" width="80" height="80" as="geometry"/></mxCell><mxCell id="6" value="" style="endArrow=classic;html=1;rounded=0;" edge="1" parent="1"><mxGeometry width="50" height="50" relative="1" as="geometry"><mxPoint x="-430" y="-590" as="sourcePoint"/><mxPoint x="-280" y="-590" as="targetPoint"/></mxGeometry></mxCell><mxCell id="7" value="其他" style="whiteSpace=wrap;html=1;aspect=fixed;" vertex="1" parent="1"><mxGeometry x="-10" y="-830" width="80" height="80" as="geometry"/></mxCell><mxCell id="8" value="引擎类" style="whiteSpace=wrap;html=1;aspect=fixed;" vertex="1" parent="1"><mxGeometry x="-240" y="-830" width="80" height="80" as="geometry"/></mxCell><mxCell id="9" value="方向盘类" style="whiteSpace=wrap;html=1;aspect=fixed;" vertex="1" parent="1"><mxGeometry x="-130" y="-830" width="80" height="80" as="geometry"/></mxCell><mxCell id="10" value="" style="endArrow=classic;html=1;rounded=0;exitX=0.5;exitY=1;exitDx=0;exitDy=0;entryX=0.392;entryY=-0.008;entryDx=0;entryDy=0;entryPerimeter=0;" edge="1" parent="1" source="5" target="3"><mxGeometry width="50" height="50" relative="1" as="geometry"><mxPoint x="-190" y="-600" as="sourcePoint"/><mxPoint x="-140" y="-650" as="targetPoint"/></mxGeometry></mxCell><mxCell id="11" value="" style="endArrow=classic;html=1;rounded=0;exitX=0.5;exitY=1;exitDx=0;exitDy=0;" edge="1" parent="1" source="8"><mxGeometry width="50" height="50" relative="1" as="geometry"><mxPoint x="-310" y="-740" as="sourcePoint"/><mxPoint x="-180" y="-660" as="targetPoint"/></mxGeometry></mxCell><mxCell id="12" value="" style="endArrow=classic;html=1;rounded=0;exitX=0.5;exitY=1;exitDx=0;exitDy=0;" edge="1" parent="1" source="9"><mxGeometry width="50" height="50" relative="1" as="geometry"><mxPoint x="-300" y="-730" as="sourcePoint"/><mxPoint x="-180" y="-660" as="targetPoint"/></mxGeometry></mxCell><mxCell id="13" value="" style="endArrow=classic;html=1;rounded=0;entryX=0.4;entryY=-0.031;entryDx=0;entryDy=0;entryPerimeter=0;exitX=0.5;exitY=1;exitDx=0;exitDy=0;" edge="1" parent="1" source="7" target="3"><mxGeometry width="50" height="50" relative="1" as="geometry"><mxPoint x="-190" y="-600" as="sourcePoint"/><mxPoint x="-140" y="-650" as="targetPoint"/></mxGeometry></mxCell><mxCell id="15" value="阶段2" style="text;html=1;align=center;verticalAlign=middle;resizable=0;points=[];autosize=1;strokeColor=none;fillColor=none;" vertex="1" parent="1"><mxGeometry x="-385" y="-625" width="50" height="30" as="geometry"/></mxCell><mxCell id="16" value="根据汽车的构造函数，与公共方法应用汽车类." style="whiteSpace=wrap;html=1;aspect=fixed;" vertex="1" parent="1"><mxGeometry x="-206" y="-436" width="80" height="80" as="geometry"/></mxCell><mxCell id="17" value="" style="endArrow=classic;html=1;rounded=0;exitX=0.5;exitY=1;exitDx=0;exitDy=0;entryX=0.5;entryY=0;entryDx=0;entryDy=0;" edge="1" parent="1" source="3" target="16"><mxGeometry width="50" height="50" relative="1" as="geometry"><mxPoint x="-190" y="-620" as="sourcePoint"/><mxPoint x="-140" y="-670" as="targetPoint"/></mxGeometry></mxCell><mxCell id="18" value="" style="endArrow=classic;html=1;rounded=0;" edge="1" parent="1"><mxGeometry width="50" height="50" relative="1" as="geometry"><mxPoint x="-30" y="-580" as="sourcePoint"/><mxPoint x="180" y="-580" as="targetPoint"/></mxGeometry></mxCell><mxCell id="19" value="阶段3" style="text;html=1;align=center;verticalAlign=middle;resizable=0;points=[];autosize=1;strokeColor=none;fillColor=none;" vertex="1" parent="1"><mxGeometry x="60" y="-620" width="50" height="30" as="geometry"/></mxCell><mxCell id="21" value="创建汽车类&lt;br&gt;使用构造函数，将依赖的轮子，引擎等。利用依赖注入，提高独立性" style="whiteSpace=wrap;html=1;aspect=fixed;" vertex="1" parent="1"><mxGeometry x="340" y="-620" width="130" height="130" as="geometry"/></mxCell><mxCell id="22" value="轮子接口" style="whiteSpace=wrap;html=1;aspect=fixed;" vertex="1" parent="1"><mxGeometry x="207" y="-890" width="80" height="80" as="geometry"/></mxCell><mxCell id="23" value="其他" style="whiteSpace=wrap;html=1;aspect=fixed;" vertex="1" parent="1"><mxGeometry x="557" y="-890" width="80" height="80" as="geometry"/></mxCell><mxCell id="24" value="引擎接口" style="whiteSpace=wrap;html=1;aspect=fixed;" vertex="1" parent="1"><mxGeometry x="327" y="-890" width="80" height="80" as="geometry"/></mxCell><mxCell id="25" value="方向盘接口" style="whiteSpace=wrap;html=1;aspect=fixed;" vertex="1" parent="1"><mxGeometry x="437" y="-890" width="80" height="80" as="geometry"/></mxCell><mxCell id="26" value="轮子类" style="whiteSpace=wrap;html=1;aspect=fixed;" vertex="1" parent="1"><mxGeometry x="207" y="-1070" width="80" height="80" as="geometry"/></mxCell><mxCell id="27" value="其他" style="whiteSpace=wrap;html=1;aspect=fixed;" vertex="1" parent="1"><mxGeometry x="557" y="-1070" width="80" height="80" as="geometry"/></mxCell><mxCell id="28" value="引擎类" style="whiteSpace=wrap;html=1;aspect=fixed;" vertex="1" parent="1"><mxGeometry x="327" y="-1070" width="80" height="80" as="geometry"/></mxCell><mxCell id="29" value="方向盘类" style="whiteSpace=wrap;html=1;aspect=fixed;" vertex="1" parent="1"><mxGeometry x="437" y="-1070" width="80" height="80" as="geometry"/></mxCell><mxCell id="30" value="" style="endArrow=classic;html=1;rounded=0;entryX=0.5;entryY=1;entryDx=0;entryDy=0;" edge="1" parent="1" source="21" target="22"><mxGeometry width="50" height="50" relative="1" as="geometry"><mxPoint x="350" y="-490" as="sourcePoint"/><mxPoint x="400" y="-540" as="targetPoint"/></mxGeometry></mxCell><mxCell id="31" value="" style="endArrow=classic;html=1;rounded=0;exitX=0.5;exitY=0;exitDx=0;exitDy=0;" edge="1" parent="1" source="21"><mxGeometry width="50" height="50" relative="1" as="geometry"><mxPoint x="350" y="-490" as="sourcePoint"/><mxPoint x="370" y="-800" as="targetPoint"/></mxGeometry></mxCell><mxCell id="32" value="" style="endArrow=classic;html=1;rounded=0;entryX=0.5;entryY=1;entryDx=0;entryDy=0;" edge="1" parent="1" target="25"><mxGeometry width="50" height="50" relative="1" as="geometry"><mxPoint x="420" y="-620" as="sourcePoint"/><mxPoint x="380" y="-790" as="targetPoint"/></mxGeometry></mxCell><mxCell id="33" value="" style="endArrow=classic;html=1;rounded=0;entryX=0.25;entryY=1;entryDx=0;entryDy=0;exitX=0.75;exitY=0;exitDx=0;exitDy=0;" edge="1" parent="1" source="21" target="23"><mxGeometry width="50" height="50" relative="1" as="geometry"><mxPoint x="450" y="-630" as="sourcePoint"/><mxPoint x="380" y="-790" as="targetPoint"/></mxGeometry></mxCell><mxCell id="35" value="" style="endArrow=classic;html=1;rounded=0;exitX=0.5;exitY=1;exitDx=0;exitDy=0;" edge="1" parent="1" source="26"><mxGeometry width="50" height="50" relative="1" as="geometry"><mxPoint x="350" y="-580" as="sourcePoint"/><mxPoint x="247" y="-900" as="targetPoint"/></mxGeometry></mxCell><mxCell id="36" value="" style="endArrow=classic;html=1;rounded=0;exitX=0.5;exitY=1;exitDx=0;exitDy=0;entryX=0.5;entryY=0;entryDx=0;entryDy=0;" edge="1" parent="1" source="28" target="24"><mxGeometry width="50" height="50" relative="1" as="geometry"><mxPoint x="257" y="-980" as="sourcePoint"/><mxPoint x="257" y="-890" as="targetPoint"/></mxGeometry></mxCell><mxCell id="37" value="" style="endArrow=classic;html=1;rounded=0;entryX=0.375;entryY=0.025;entryDx=0;entryDy=0;entryPerimeter=0;" edge="1" parent="1" source="29" target="25"><mxGeometry width="50" height="50" relative="1" as="geometry"><mxPoint x="380" y="-970" as="sourcePoint"/><mxPoint x="377" y="-880" as="targetPoint"/></mxGeometry></mxCell><mxCell id="38" value="" style="endArrow=classic;html=1;rounded=0;entryX=0.5;entryY=0;entryDx=0;entryDy=0;exitX=0.5;exitY=1;exitDx=0;exitDy=0;" edge="1" parent="1" source="27" target="23"><mxGeometry width="50" height="50" relative="1" as="geometry"><mxPoint x="484.1830985915494" y="-980" as="sourcePoint"/><mxPoint x="477" y="-878" as="targetPoint"/></mxGeometry></mxCell><mxCell id="39" value="应用汽车&lt;br&gt;基层类在这里实例化，并构造构造汽车" style="whiteSpace=wrap;html=1;aspect=fixed;" vertex="1" parent="1"><mxGeometry x="322" y="-356" width="166" height="166" as="geometry"/></mxCell><mxCell id="40" value="" style="endArrow=classic;html=1;rounded=0;exitX=0.5;exitY=0;exitDx=0;exitDy=0;entryX=0.5;entryY=1;entryDx=0;entryDy=0;" edge="1" parent="1" source="39" target="21"><mxGeometry width="50" height="50" relative="1" as="geometry"><mxPoint x="180" y="-610" as="sourcePoint"/><mxPoint x="230" y="-660" as="targetPoint"/></mxGeometry></mxCell><mxCell id="44" value="" style="endArrow=classic;html=1;rounded=0;" edge="1" parent="1" target="45"><mxGeometry width="50" height="50" relative="1" as="geometry"><mxPoint x="-780" y="-580" as="sourcePoint"/><mxPoint x="-640" y="-580" as="targetPoint"/></mxGeometry></mxCell><mxCell id="45" value="Text" style="text;html=1;strokeColor=none;fillColor=none;align=center;verticalAlign=middle;whiteSpace=wrap;rounded=0;" vertex="1" parent="1"><mxGeometry x="-670" y="-595" width="60" height="30" as="geometry"/></mxCell><mxCell id="46" value="阶段1" style="text;html=1;align=center;verticalAlign=middle;resizable=0;points=[];autosize=1;strokeColor=none;fillColor=none;" vertex="1" parent="1"><mxGeometry x="-745" y="-615" width="50" height="30" as="geometry"/></mxCell></root></mxGraphModel></diagram></mxfile>